<svg width="92" height="24" viewBox="0 0 92 24" fill="none" xmlns="http://www.w3.org/2000/svg">
<path d="M1.6123 6.01147V7.06543H10.3601H19.108V6.01147V4.95752H10.3601H1.6123V6.01147Z" fill="#FF8343"/>
<path d="M34.2148 8.5902C34.2148 11.5603 34.1938 11.7057 33.7954 11.7057C33.3969 11.7057 33.376 11.8511 33.376 14.1981C33.376 16.5451 33.3969 16.6904 33.7954 16.6904C34.1938 16.6904 34.2148 16.8358 34.2148 20.2213V23.7522H36.3119H38.4089V14.6135V5.47472H36.3119H34.2148V8.5902Z" fill="#FF8343"/>
<path d="M39.2041 14.7017V23.9287H41.3674H43.5307V14.7017V5.47464H41.3674H39.2041V14.7017Z" fill="#FF8343"/>
<path d="M22.578 7.99057V10.065H23.119C23.556 10.065 23.6392 10.148 23.5143 10.4177C23.015 11.6831 22.7445 14.1517 22.6405 18.4043L22.5156 23.134H24.5963H26.6769L26.8434 19.1718L26.989 15.2304L27.7589 15.2926L28.5079 15.3549L28.5704 19.2341L28.612 23.134H30.8175H33.023L32.9397 18.3006C32.8565 14.2554 32.7941 13.3426 32.482 12.5958C31.9618 11.4134 31.2128 11.0193 29.2778 11.0193C28.1126 10.9985 27.8005 10.9363 27.8837 10.7288C27.9462 10.5629 27.9878 10.3554 27.9878 10.2517C27.9878 10.148 29.0697 10.065 30.3805 10.065H32.7733V7.99057V5.91612H27.6757H22.578V7.99057Z" fill="#FF8343"/>
<path d="M0.856993 8.90353C0.856993 9.91306 0.898374 10.0367 1.2708 10.0367C1.68461 10.0367 1.68461 10.0573 1.35356 10.696C1.16735 11.0668 0.960445 11.9321 0.898374 12.6532L0.794922 13.9512H3.89848C6.75374 13.9512 7.02272 13.91 7.10548 13.5803C7.22962 13.1271 8.7814 12.921 11.9884 12.921C13.9747 12.921 14.7195 13.1271 14.7195 13.6421C14.7195 13.91 15.2368 13.9512 17.8231 13.9512H20.9266V13.2507C20.9266 11.1904 20.1611 10.8196 15.7541 10.7166C13.9954 10.6754 11.4918 10.7166 10.2297 10.799C8.59519 10.9226 7.89171 10.902 7.89171 10.7578C7.89171 10.0985 8.38828 10.0367 14.554 10.0367H20.7197V8.90353V7.77038H10.7884H0.856993V8.90353Z" fill="#FF8343"/>
<path d="M0 15.9259V17.2824H4.14317C6.77408 17.2824 8.28633 17.3659 8.28633 17.4911C8.28633 17.6164 6.89837 17.6998 4.55748 17.6998H0.828633V19.5782V21.4565H7.9756H15.1226V22.6043V23.7522H17.9192H20.7158V20.726V17.6998H17.0906C14.8118 17.6998 13.4653 17.6164 13.4653 17.4911C13.4653 17.3659 14.9568 17.2824 17.5049 17.2824H21.5445V15.9259V14.5693H10.7722H0V15.9259Z" fill="#FF8343"/>
<path d="M84.5439 14.7139V23.9817H87.2158H89.8876V20.308V16.6342H90.639H91.3905V14.1294V11.6246H90.639H89.8876V8.53531V5.44603H87.2158H84.5439V14.7139Z" fill="#FF8343"/>
<path d="M60.79 14.7322V24H63.4618H66.1337V20.4933V16.9865H66.9686H67.8035V14.3147V11.6429H66.9686H66.1337V8.55362V5.46434H63.4618H60.79V14.7322Z" fill="#FF8343"/>
<path d="M69.8486 7.95082V10.1217H70.4999H71.1511L70.8506 10.9232C70.1325 12.7935 69.6983 16.7511 69.6816 21.1763V23.1467H72.2533H74.8082L74.8917 19.7068C74.9418 17.5693 75.0587 16.2 75.1588 16.0998C75.259 15.9996 75.927 15.8828 76.645 15.8494C78.6823 15.7325 78.5988 15.5822 78.6656 19.7068L78.7157 23.1467H81.3207H83.909L83.8255 19.0054C83.742 14.4968 83.5917 13.6117 82.7568 12.6098C81.8384 11.5077 79.9347 11.0902 77.5301 11.4409C76.7786 11.5578 76.1274 11.6079 76.094 11.5745C76.0439 11.5244 76.1441 11.1904 76.2944 10.8063L76.5615 10.1217H80.1351H83.7086V7.95082V5.77998H76.7786H69.8486V7.95082Z" fill="#FF8343"/>
<path d="M44.6768 5.84935V8.76199H47.9995C51.0787 8.76199 51.3049 8.77912 51.2179 9.05325C50.696 10.7323 47.9299 19.4017 47.8081 19.7786L47.6516 20.2412H51.618H55.5844L57.8634 11.7089C59.1333 7.01441 60.1597 3.12518 60.1597 3.05665C60.1597 2.98811 56.6804 2.93671 52.4182 2.93671H44.6768V5.84935Z" fill="#FF5F00"/>
<path d="M84.5439 14.7139V23.9817H87.2158H89.8876V20.308V16.6342H90.639H91.3905V14.1294V11.6246H90.639H89.8876V8.53531V5.44603H87.2158H84.5439V14.7139Z" fill="#FF8343"/>
<path d="M60.79 14.7322V24H63.4618H66.1337V20.4933V16.9865H66.9686H67.8035V14.3147V11.6429H66.9686H66.1337V8.55362V5.46434H63.4618H60.79V14.7322Z" fill="#FF8343"/>
<path d="M69.8486 7.95082V10.1217H70.4999H71.1511L70.8506 10.9232C70.1325 12.7935 69.6983 16.7511 69.6816 21.1763V23.1467H72.2533H74.8082L74.8917 19.7068C74.9418 17.5693 75.0587 16.2 75.1588 16.0998C75.259 15.9996 75.927 15.8828 76.645 15.8494C78.6823 15.7325 78.5988 15.5822 78.6656 19.7068L78.7157 23.1467H81.3207H83.909L83.8255 19.0054C83.742 14.4968 83.5917 13.6117 82.7568 12.6098C81.8384 11.5077 79.9347 11.0902 77.5301 11.4409C76.7786 11.5578 76.1274 11.6079 76.094 11.5745C76.0439 11.5244 76.1441 11.1904 76.2944 10.8063L76.5615 10.1217H80.1351H83.7086V7.95082V5.77998H76.7786H69.8486V7.95082Z" fill="#FF8343"/>
<path d="M44.6768 5.84935V8.76199H47.9995C51.0787 8.76199 51.3049 8.77912 51.2179 9.05325C50.696 10.7323 47.9299 19.4017 47.8081 19.7786L47.6516 20.2412H51.618H55.5844L57.8634 11.7089C59.1333 7.01441 60.1597 3.12518 60.1597 3.05665C60.1597 2.98811 56.6804 2.93671 52.4182 2.93671H44.6768V5.84935Z" fill="#FF5F00"/>
<path d="M84.5439 14.7139V23.9817H87.2158H89.8876V20.308V16.6342H90.639H91.3905V14.1294V11.6246H90.639H89.8876V8.53531V5.44603H87.2158H84.5439V14.7139Z" fill="#FF8343"/>
<path d="M60.79 14.7322V24H63.4618H66.1337V20.4933V16.9865H66.9686H67.8035V14.3147V11.6429H66.9686H66.1337V8.55362V5.46434H63.4618H60.79V14.7322Z" fill="#FF8343"/>
<path d="M69.8486 7.95082V10.1217H70.4999H71.1511L70.8506 10.9232C70.1325 12.7935 69.6983 16.7511 69.6816 21.1763V23.1467H72.2533H74.8082L74.8917 19.7068C74.9418 17.5693 75.0587 16.2 75.1588 16.0998C75.259 15.9996 75.927 15.8828 76.645 15.8494C78.6823 15.7325 78.5988 15.5822 78.6656 19.7068L78.7157 23.1467H81.3207H83.909L83.8255 19.0054C83.742 14.4968 83.5917 13.6117 82.7568 12.6098C81.8384 11.5077 79.9347 11.0902 77.5301 11.4409C76.7786 11.5578 76.1274 11.6079 76.094 11.5745C76.0439 11.5244 76.1441 11.1904 76.2944 10.8063L76.5615 10.1217H80.1351H83.7086V7.95082V5.77998H76.7786H69.8486V7.95082Z" fill="#FF8343"/>
<path d="M44.6768 5.84935V8.76199H47.9995C51.0787 8.76199 51.3049 8.77912 51.2179 9.05325C50.696 10.7323 47.9299 19.4017 47.8081 19.7786L47.6516 20.2412H51.618H55.5844L57.8634 11.7089C59.1333 7.01441 60.1597 3.12518 60.1597 3.05665C60.1597 2.98811 56.6804 2.93671 52.4182 2.93671H44.6768V5.84935Z" fill="#FF5F00"/>
<path d="M55.4941 0.0185547L51.713 2.9553H55.4941L55.4941 0.0185547Z" fill="#FF5F00"/>
<path d="M49.3604 0.0185547V2.9553H53.1416L49.3604 0.0185547Z" fill="#FF5F00"/>
<path d="M52.5546 0L50.4441 2.93675H54.5273L52.5546 0Z" fill="#FF5F00"/>
<path d="M49.3602 0V2.93675H53.4434L49.3602 0Z" fill="#FF5F00"/>
<path d="M44.6787 8.12343C44.6787 8.12343 50.3297 7.46119 49.9765 8.12343C49.6233 8.78567 49.5166 9.37424 49.226 10.1543H44.6787V8.12343Z" fill="#FF5F00"/>
</svg>