<svg width="92" height="24" viewBox="0 0 92 24" fill="none" xmlns="http://www.w3.org/2000/svg">
<rect width="92" height="24" fill="#F5F5F5"/>
<path d="M1.61228 6.01147V7.06543H10.3601H19.108V6.01147V4.95752H10.3601H1.61228V6.01147Z" fill="#FF8343"/>
<path d="M34.2151 8.58995C34.2151 11.56 34.1941 11.7054 33.7957 11.7054C33.3972 11.7054 33.3763 11.8508 33.3763 14.1978C33.3763 16.5448 33.3972 16.6902 33.7957 16.6902C34.1941 16.6902 34.2151 16.8356 34.2151 20.2211V23.752H36.3121H38.4092V14.6132V5.47447H36.3121H34.2151V8.58995Z" fill="#FF8343"/>
<path d="M39.2039 14.7017V23.9287H41.3671H43.5304V14.7017V5.47464H41.3671H39.2039V14.7017Z" fill="#FF8343"/>
<path d="M22.5782 7.99032V10.0648H23.1191C23.5561 10.0648 23.6393 10.1477 23.5144 10.4174C23.0151 11.6828 22.7446 14.1514 22.6406 18.404L22.5157 23.1338H24.5964H26.6771L26.8435 19.1716L26.9892 15.2301L27.759 15.2924L28.508 15.3546L28.5705 19.2338L28.6121 23.1338H30.8176H33.0231L32.9398 18.3003C32.8566 14.2552 32.7942 13.3424 32.4821 12.5956C31.9619 11.4132 31.2129 11.019 29.2779 11.019C28.1127 10.9983 27.8006 10.936 27.8838 10.7286C27.9463 10.5626 27.9879 10.3552 27.9879 10.2515C27.9879 10.1477 29.0698 10.0648 30.3806 10.0648H32.7734V7.99032V5.91587H27.6758H22.5782V7.99032Z" fill="#FF8343"/>
<path d="M0.856741 8.90353C0.856741 9.91306 0.898122 10.0367 1.27055 10.0367C1.68436 10.0367 1.68436 10.0573 1.35331 10.696C1.1671 11.0668 0.960193 11.9321 0.898122 12.6532L0.79467 13.9512H3.89822C6.75349 13.9512 7.02247 13.91 7.10523 13.5803C7.22937 13.1271 8.78115 12.921 11.9882 12.921C13.9744 12.921 14.7193 13.1271 14.7193 13.6421C14.7193 13.91 15.2365 13.9512 17.8228 13.9512H20.9264V13.2507C20.9264 11.1904 20.1608 10.8196 15.7538 10.7166C13.9951 10.6754 11.4916 10.7166 10.2295 10.799C8.59493 10.9226 7.89146 10.902 7.89146 10.7578C7.89146 10.0985 8.38803 10.0367 14.5538 10.0367H20.7195V8.90353V7.77038H10.7881H0.856741V8.90353Z" fill="#FF8343"/>
<path d="M0 15.9256V17.2822H4.14317C6.77408 17.2822 8.28633 17.3657 8.28633 17.4909C8.28633 17.6161 6.89837 17.6996 4.55748 17.6996H0.828633V19.5779V21.4562H7.9756H15.1226V22.6041V23.752H17.9192H20.7158V20.7258V17.6996H17.0906C14.8118 17.6996 13.4653 17.6161 13.4653 17.4909C13.4653 17.3657 14.9568 17.2822 17.5049 17.2822H21.5445V15.9256V14.5691H10.7722H0V15.9256Z" fill="#FF8343"/>
<path d="M84.544 14.7136V23.9814H87.2158H89.8876V20.3077V16.634H90.639H91.3905V14.1292V11.6243H90.639H89.8876V8.53506V5.44578H87.2158H84.544V14.7136Z" fill="#FF8343"/>
<path d="M60.7898 14.7322V24H63.4616H66.1334V20.4933V16.9865H66.9684H67.8033V14.3147V11.6429H66.9684H66.1334V8.55362V5.46434H63.4616H60.7898V14.7322Z" fill="#FF8343"/>
<path d="M69.849 7.95058V10.1214H70.5003H71.1515L70.851 10.923C70.1329 12.7932 69.6987 16.7508 69.682 21.176V23.1465H72.2537H74.8086L74.8921 19.7065C74.9422 17.5691 75.059 16.1998 75.1592 16.0996C75.2594 15.9994 75.9274 15.8825 76.6454 15.8491C78.6827 15.7322 78.5992 15.5819 78.666 19.7065L78.7161 23.1465H81.3211H83.9094L83.8259 19.0052C83.7424 14.4965 83.5921 13.6115 82.7572 12.6095C81.8388 11.5074 79.9351 11.09 77.5305 11.4406C76.779 11.5575 76.1278 11.6076 76.0944 11.5742C76.0443 11.5241 76.1445 11.1901 76.2948 10.8061L76.5619 10.1214H80.1355H83.709V7.95058V5.77974H76.779H69.849V7.95058Z" fill="#FF8343"/>
<path d="M44.677 5.84935V8.76199H47.9998C51.079 8.76199 51.3051 8.77912 51.2181 9.05325C50.6962 10.7323 47.9302 19.4017 47.8084 19.7786L47.6518 20.2412H51.6182H55.5847L57.8636 11.7089C59.1336 7.01441 60.16 3.12518 60.16 3.05665C60.16 2.98811 56.6807 2.93671 52.4185 2.93671H44.677V5.84935Z" fill="#FF5F00"/>
<path d="M84.544 14.7136V23.9814H87.2158H89.8876V20.3077V16.634H90.639H91.3905V14.1292V11.6243H90.639H89.8876V8.53506V5.44578H87.2158H84.544V14.7136Z" fill="#FF8343"/>
<path d="M60.7898 14.7322V24H63.4616H66.1334V20.4933V16.9865H66.9684H67.8033V14.3147V11.6429H66.9684H66.1334V8.55362V5.46434H63.4616H60.7898V14.7322Z" fill="#FF8343"/>
<path d="M69.849 7.95058V10.1214H70.5003H71.1515L70.851 10.923C70.1329 12.7932 69.6987 16.7508 69.682 21.176V23.1465H72.2537H74.8086L74.8921 19.7065C74.9422 17.5691 75.059 16.1998 75.1592 16.0996C75.2594 15.9994 75.9274 15.8825 76.6454 15.8491C78.6827 15.7322 78.5992 15.5819 78.666 19.7065L78.7161 23.1465H81.3211H83.9094L83.8259 19.0052C83.7424 14.4965 83.5921 13.6115 82.7572 12.6095C81.8388 11.5074 79.9351 11.09 77.5305 11.4406C76.779 11.5575 76.1278 11.6076 76.0944 11.5742C76.0443 11.5241 76.1445 11.1901 76.2948 10.8061L76.5619 10.1214H80.1355H83.709V7.95058V5.77974H76.779H69.849V7.95058Z" fill="#FF8343"/>
<path d="M44.677 5.84935V8.76199H47.9998C51.079 8.76199 51.3051 8.77912 51.2181 9.05325C50.6962 10.7323 47.9302 19.4017 47.8084 19.7786L47.6518 20.2412H51.6182H55.5847L57.8636 11.7089C59.1336 7.01441 60.16 3.12518 60.16 3.05665C60.16 2.98811 56.6807 2.93671 52.4185 2.93671H44.677V5.84935Z" fill="#FF5F00"/>
<path d="M84.544 14.7136V23.9814H87.2158H89.8876V20.3077V16.634H90.639H91.3905V14.1292V11.6243H90.639H89.8876V8.53506V5.44578H87.2158H84.544V14.7136Z" fill="#FF8343"/>
<path d="M60.7898 14.7322V24H63.4616H66.1334V20.4933V16.9865H66.9684H67.8033V14.3147V11.6429H66.9684H66.1334V8.55362V5.46434H63.4616H60.7898V14.7322Z" fill="#FF8343"/>
<path d="M69.849 7.95058V10.1214H70.5003H71.1515L70.851 10.923C70.1329 12.7932 69.6987 16.7508 69.682 21.176V23.1465H72.2537H74.8086L74.8921 19.7065C74.9422 17.5691 75.059 16.1998 75.1592 16.0996C75.2594 15.9994 75.9274 15.8825 76.6454 15.8491C78.6827 15.7322 78.5992 15.5819 78.666 19.7065L78.7161 23.1465H81.3211H83.9094L83.8259 19.0052C83.7424 14.4965 83.5921 13.6115 82.7572 12.6095C81.8388 11.5074 79.9351 11.09 77.5305 11.4406C76.779 11.5575 76.1278 11.6076 76.0944 11.5742C76.0443 11.5241 76.1445 11.1901 76.2948 10.8061L76.5619 10.1214H80.1355H83.709V7.95058V5.77974H76.779H69.849V7.95058Z" fill="#FF8343"/>
<path d="M44.677 5.84935V8.76199H47.9998C51.079 8.76199 51.3051 8.77912 51.2181 9.05325C50.6962 10.7323 47.9302 19.4017 47.8084 19.7786L47.6518 20.2412H51.6182H55.5847L57.8636 11.7089C59.1336 7.01441 60.16 3.12518 60.16 3.05665C60.16 2.98811 56.6807 2.93671 52.4185 2.93671H44.677V5.84935Z" fill="#FF5F00"/>
<path d="M55.4945 0.0185547L51.7133 2.9553H55.4945L55.4945 0.0185547Z" fill="#FF5F00"/>
<path d="M49.3608 0.0185547V2.9553H53.142L49.3608 0.0185547Z" fill="#FF5F00"/>
<path d="M52.5553 0L50.4448 2.93675H54.528L52.5553 0Z" fill="#FF5F00"/>
<path d="M49.3608 0V2.93675H53.444L49.3608 0Z" fill="#FF5F00"/>
<path d="M44.6783 8.12343C44.6783 8.12343 50.3293 7.46119 49.9761 8.12343C49.6229 8.78567 49.5162 9.37424 49.2256 10.1543H44.6783V8.12343Z" fill="#FF5F00"/>
</svg>
